<svg xmlns="http://www.w3.org/2000/svg" width="32" height="32" viewBox="-2.29 -2.29 32.57 32.57"><path d="M9.023 10.5H7q-1.914 0-3.281 1.395t-1.367 3.309 1.367 3.281T7 19.852h11.375zM3.5 4.976l1.477-1.477L24.5 23.022l-1.477 1.477-2.352-2.297H6.999q-2.898 0-4.949-2.051t-2.051-4.949q0-2.844 1.969-4.867t4.758-2.133zm19.086 5.578q2.242.164 3.828 1.832T28 16.351q0 3.008-2.461 4.758l-1.695-1.695q1.805-.984 1.805-3.063 0-1.422-1.039-2.461t-2.461-1.039h-1.75v-.602q0-2.68-1.859-4.539t-4.539-1.859q-1.531 0-2.953.711l-1.75-1.695Q11.431 3.5 14.001 3.5q2.953 0 5.496 2.078t3.09 4.977z"/></svg>